<svg width="101" height="101" viewBox="0 0 101 101" fill="none" xmlns="http://www.w3.org/2000/svg">
<path d="M51.341 9.80164L52.3807 1.95017L55.1412 2.31146C57.2234 2.58398 59.1111 4.06547 58.767 6.69505C58.4462 9.14614 56.3503 10.4572 54.0539 10.1567L51.341 9.80164ZM52.6006 8.962L54.1831 9.16912C56.0512 9.41361 57.4124 8.2605 57.6304 6.5947C57.8681 4.87097 56.8696 3.53007 55.0254 3.28869L53.3715 3.07223L52.6006 8.962Z" fill="#082544"/>
<path d="M64.9014 12.7549C63.2172 12.0863 62.3168 10.3216 62.9787 8.62184C63.6848 6.81058 65.4948 6.18638 67.2347 6.87709C68.997 7.57666 69.886 9.27234 69.1576 11.0747C68.4779 12.7545 66.6859 13.4633 64.9014 12.7549ZM64.0271 9.03804C63.5666 10.198 64.1581 11.4399 65.24 11.8693C66.333 12.3032 67.6266 11.8743 68.1092 10.6586C68.6051 9.40938 68.0226 8.20982 66.8849 7.7582C65.7808 7.31986 64.5451 7.7331 64.0271 9.03804Z" fill="#082544"/>
<path d="M72.3969 16.142L74.5783 10.1467L75.4731 10.8336L73.809 15.4257L77.8624 12.6675L78.6715 13.2886L77.0835 17.9392L81.1846 15.2175L82.0793 15.9043L76.7662 19.4957L75.8999 18.8308L77.3438 14.1906L73.2441 16.7923L72.3969 16.142Z" fill="#082544"/>
<path d="M80.9739 23.2327L85.8833 19.6393L86.5496 20.5496L85.3295 21.4426C86.3671 21.1739 87.4969 21.6407 88.1702 22.5606C89.1863 23.9285 88.9906 25.6928 87.3734 26.8764L84.9429 28.6554L84.2696 27.7355L86.7072 25.9662C87.915 25.097 87.9181 23.8009 87.2139 22.8591C86.5335 21.9295 85.2513 21.5593 84.099 22.4027L81.6685 24.1817L80.9739 23.2327Z" fill="#082544"/>
<path d="M86.7047 31.6393L93.8767 28.2795L94.3552 29.301L87.1832 32.6608L86.7047 31.6393Z" fill="#082544"/>
<path d="M89.8838 40.0006C89.4441 38.2427 90.352 36.4818 92.1186 36.0276C94.0016 35.5443 95.5646 36.6501 96.0188 38.4662C96.4789 40.3055 95.6205 42.0169 93.7316 42.477C91.9709 42.905 90.3497 41.8632 89.8838 40.0006ZM92.3923 37.1219C91.1816 37.4247 90.5181 38.6297 90.8006 39.7589C91.0859 40.8998 92.189 41.7 93.4579 41.3827C94.7618 41.0566 95.3961 39.8836 95.0992 38.6962C94.8109 37.5437 93.7543 36.7813 92.3923 37.1219Z" fill="#082544"/>
<path d="M91.3645 49.7663C91.3602 48.0143 92.7461 46.7004 94.5101 46.7083C96.5141 46.7172 97.7082 48.0305 97.6887 49.7344C97.6837 50.8624 97.043 51.9156 96.0453 52.2952L97.5573 52.3019L97.5522 53.4419L91.4682 53.4148L91.4733 52.2868L93.0212 52.2937C92.0389 51.9174 91.3596 50.8703 91.3645 49.7663ZM94.5051 47.8363C93.2211 47.8306 92.3165 48.8706 92.3233 50.0226C92.3182 51.1866 93.2135 52.2466 94.4854 52.2522C95.8894 52.2585 96.7341 51.2062 96.7393 50.0422C96.7565 48.8663 95.9931 47.8429 94.5051 47.8363Z" fill="#082544"/>
<path d="M90.3809 59.9821C90.8129 58.2842 92.4822 57.3567 94.1887 57.8034C96.1274 58.3109 96.9571 59.8801 96.5139 61.5255C96.2283 62.6168 95.3456 63.4773 94.2848 63.5965L97.5237 64.4444L97.235 65.5472L89.5732 63.5416L89.8588 62.4504L91.3564 62.8424C90.4986 62.2333 90.1013 61.0501 90.3809 59.9821ZM93.9031 58.8946C92.6609 58.5695 91.5259 59.3515 91.2458 60.469C90.951 61.5951 91.5543 62.8445 92.7848 63.1667C94.1662 63.5283 95.2231 62.7133 95.5178 61.5873C95.8272 60.4527 95.3426 59.2714 93.9031 58.8946Z" fill="#082544"/>
<path d="M85.8847 72.3036L89.8798 79.9876L89.1976 80.8403L80.8018 78.6564L81.544 77.7288L84.2689 78.4336L86.4449 75.7332L85.1425 73.2312L85.8847 72.3036ZM86.8908 76.5972L85.219 78.6867L88.4105 79.519L86.8908 76.5972Z" fill="#082544"/>
<path d="M76.7387 79.8608L81.4747 86.4615L80.5582 87.1191L79.6907 85.9101C79.9649 86.9097 79.5251 88.0671 78.6449 88.7134C77.2479 89.7305 75.3876 89.3815 74.3733 87.9678C73.219 86.359 73.5794 84.6383 74.9612 83.6616C75.8679 83.0111 77.0702 82.9164 77.9558 83.4921L75.8222 80.5183L76.7387 79.8608ZM78.8193 84.7778C78.0008 83.6371 76.7006 83.5952 75.7673 84.25C74.8146 84.9188 74.4363 86.1207 75.2898 87.3102C76.0313 88.3437 77.3707 88.4608 78.2997 87.7795C79.226 87.1149 79.5468 85.7918 78.8193 84.7778Z" fill="#082544"/>
<path d="M68.7381 85.4667L71.6803 93.0393L70.6289 93.4478L70.09 92.0608C70.1064 93.0972 69.3922 94.1085 68.3787 94.5152C66.7723 95.1521 65.0577 94.3507 64.4275 92.7288C63.7104 90.8832 64.4882 89.3065 66.0697 88.7049C67.11 88.3008 68.2979 88.5087 69.0122 89.2868L67.6867 85.8753L68.7381 85.4667ZM69.5281 90.7471C69.0196 89.4384 67.7708 89.0739 66.7039 89.4756C65.6145 89.886 64.9487 90.9557 65.4789 92.3203C65.9396 93.506 67.2076 93.9531 68.2771 93.5247C69.3397 93.1119 69.98 91.9104 69.5281 90.7471Z" fill="#082544"/>
<path d="M48.1511 92.0551L46.7957 99.8583L44.0521 99.386C41.9825 99.0298 40.1561 97.4734 40.606 94.8598C41.0253 92.4236 43.1724 91.1981 45.4548 91.591L48.1511 92.0551ZM46.8587 92.8433L45.2858 92.5726C43.4291 92.253 42.0226 93.3502 41.7376 95.0059C41.4306 96.7186 42.3741 98.0987 44.2072 98.4142L45.851 98.6972L46.8587 92.8433Z" fill="#082544"/>
<path d="M34.7097 88.5513C36.3652 89.288 37.1929 91.088 36.4623 92.7593C35.6828 94.5403 33.8489 95.0901 32.1386 94.329C30.4064 93.5582 29.5872 91.8276 30.3885 90.0564C31.1362 88.4058 32.9556 87.7707 34.7097 88.5513ZM35.4317 92.3007C35.9391 91.1605 35.3987 89.8956 34.3353 89.4223C33.2609 88.9442 31.9509 89.32 31.4191 90.5151C30.8727 91.743 31.4057 92.9653 32.524 93.4629C33.6094 93.9459 34.8609 93.5834 35.4317 92.3007Z" fill="#082544"/>
<path d="M27.356 84.8603L24.934 90.7625L24.0677 90.04L25.9161 85.5189L21.7545 88.1109L20.9711 87.4577L22.7459 82.8751L18.5382 85.4287L17.6719 84.7062L23.1259 81.3327L23.9646 82.0321L22.3343 86.6101L26.5358 84.1763L27.356 84.8603Z" fill="#082544"/>
<path d="M19.0704 77.4273L14.0192 80.8186L13.3904 79.882L14.6458 79.0392C13.5981 79.2656 12.4881 78.7534 11.8527 77.8069C10.8929 76.3989 11.1601 74.644 12.8239 73.527L15.3246 71.8481L15.96 72.7946L13.4527 74.4635C12.2106 75.283 12.1549 76.5778 12.8204 77.5475C13.4625 78.5039 14.7286 78.9258 15.9142 78.1298L18.4149 76.4509L19.0704 77.4273Z" fill="#082544"/>
<path d="M13.6839 68.7902L6.38006 71.853L5.94384 70.8127L13.2476 67.7499L13.6839 68.7902Z" fill="#082544"/>
<path d="M10.8495 60.2965C11.2162 62.071 10.2364 63.7929 8.45257 64.1738C6.55123 64.579 5.03519 63.4096 4.65633 61.5764C4.2726 59.7196 5.20091 58.0451 7.10711 57.6634C8.88405 57.3084 10.4609 58.4162 10.8495 60.2965ZM8.22428 63.0691C9.44645 62.8166 10.1591 61.64 9.9235 60.5001C9.6855 59.3484 8.61634 58.5033 7.3354 58.768C6.01922 59.04 5.33699 60.1858 5.58471 61.3845C5.82514 62.5479 6.84933 63.3533 8.22428 63.0691Z" fill="#082544"/>
<path d="M9.76903 50.4702C9.70215 52.221 8.26413 53.4775 6.50192 53.3981C4.49995 53.3079 3.36005 51.9472 3.44874 50.2455C3.49952 49.1186 4.18241 48.0923 5.19469 47.7536L3.68422 47.6855L3.73554 46.5466L9.81337 46.8205L9.7626 47.9474L8.21616 47.8777C9.18242 48.2936 9.81873 49.3673 9.76903 50.4702ZM6.5527 52.2713C7.83539 52.3291 8.78148 51.3266 8.82135 50.1753C8.87375 49.0124 8.0222 47.917 6.75149 47.8597C5.34891 47.7965 4.46223 48.8137 4.40983 49.9765C4.3449 51.1507 5.0662 52.2043 6.5527 52.2713Z" fill="#082544"/>
<path d="M11.1662 40.3223C10.6649 42.001 8.9589 42.8592 7.27217 42.3429C5.35596 41.7562 4.59142 40.1542 5.10171 38.5284C5.43192 37.4498 6.34918 36.6263 7.41396 36.5506L4.21262 35.5706L4.54634 34.4805L12.1194 36.7989L11.7892 37.8775L10.309 37.4244C11.141 38.0681 11.4894 39.2666 11.1662 40.3223ZM7.60237 41.2643C8.83013 41.6401 9.99632 40.9053 10.3221 39.8003C10.6628 38.6873 10.1114 37.4141 8.89509 37.0417C7.52964 36.6237 6.44026 37.3946 6.09952 38.5076C5.74379 39.6286 6.17956 40.8287 7.60237 41.2643Z" fill="#082544"/>
<path d="M16.1607 28.2002L12.4793 20.3611L13.1954 19.5367L21.4961 22.058L20.7171 22.9548L18.0229 22.1405L15.7396 24.7508L16.9397 27.3034L16.1607 28.2002ZM15.3289 23.8695L17.0837 21.8493L13.9285 20.8887L15.3289 23.8695Z" fill="#082544"/>
<path d="M25.6037 21.0181L21.1391 14.2308L22.0815 13.6109L22.8993 14.8541C22.6659 13.8442 23.1522 12.7056 24.0579 12.0955C25.495 11.1358 27.3395 11.5599 28.2958 13.0136C29.3839 14.6678 28.954 16.3726 27.5338 17.2924C26.6014 17.9057 25.3963 17.9515 24.5347 17.3404L26.5461 20.3982L25.6037 21.0181ZM23.7241 16.0208C24.4957 17.1937 25.7931 17.2883 26.7522 16.6718C27.7312 16.0422 28.1579 14.8566 27.3534 13.6335C26.6543 12.5708 25.3207 12.3995 24.3649 13.0426C23.4125 13.6691 23.0383 14.9781 23.7241 16.0208Z" fill="#082544"/>
<path d="M33.8174 15.745L31.1859 8.05901L32.2531 7.69363L32.7351 9.10141C32.7608 8.06521 33.5156 7.08381 34.5449 6.71874C36.1758 6.14767 37.8564 7.01824 38.42 8.66443C39.0614 10.5377 38.2201 12.0814 36.6154 12.6181C35.5596 12.9796 34.3811 12.7235 33.6991 11.917L34.8846 15.3796L33.8174 15.745ZM33.243 10.4369C33.6978 11.7652 34.9307 12.1802 36.0132 11.8223C37.1183 11.4566 37.8271 10.4149 37.3528 9.0298C36.9408 7.82638 35.6921 7.328 34.6061 7.7125C33.5275 8.08176 32.8388 9.25616 33.243 10.4369Z" fill="#082544"/>
<g clip-path="url(#clip0_3017_1986)">
<path d="M64.1155 38.1825V55.9201C64.1155 56.565 63.5926 57.0879 62.9477 57.0879C62.3028 57.0879 61.7799 56.565 61.7799 55.9201V41.002L38.6888 64.093C38.4607 64.321 38.1619 64.435 37.863 64.435C37.5641 64.435 37.2653 64.321 37.0372 64.093C36.5812 63.637 36.5812 62.8975 37.0372 62.4415L60.1285 39.3503H45.2101C44.5652 39.3503 44.0423 38.8274 44.0423 38.1825C44.0423 37.5376 44.5652 37.0148 45.2101 37.0148H62.9477C63.5926 37.0147 64.1155 37.5376 64.1155 38.1825Z" fill="black"/>
</g>
<defs>
<clipPath id="clip0_3017_1986">
<rect width="27.4203" height="27.4202" fill="white" transform="translate(36.6949 37.0148)"/>
</clipPath>
</defs>
</svg>
